<svg viewBox="0 0 512 512" xmlns="http://www.w3.org/2000/svg" xmlns:xlink="http://www.w3.org/1999/xlink"><linearGradient id="a" gradientTransform="matrix(1 0 0 -1 0 -16582)" gradientUnits="userSpaceOnUse" x1="0" x2="512" y1="-16838" y2="-16838"><stop offset="0" stop-color="#00f38d"/><stop offset="1" stop-color="#009eff"/></linearGradient><path d="m512 256c0 141.386719-114.613281 256-256 256s-256-114.613281-256-256 114.613281-256 256-256 256 114.613281 256 256zm0 0" fill="url(#a)"/><g fill="#fff"><path d="m173.515625 160.851562c0 7.582032-6.144531 13.726563-13.726563 13.726563-7.582031 0-13.730468-6.144531-13.730468-13.726563 0-7.582031 6.148437-13.730468 13.730468-13.730468 7.582032 0 13.726563 6.148437 13.726563 13.730468zm0 0"/><path d="m236.5625 161.691406v-1.890625c0-42.3125-34.441406-76.742187-76.773438-76.742187-42.335937 0-76.777343 34.429687-76.777343 76.742187v1.890625c0 20.882813 11.480469 45.988282 34.125 74.617188 15.984375 20.210937 31.804687 34.894531 32.46875 35.511718l10.183593 9.414063 10.183594-9.414063c.664063-.613281 16.484375-15.300781 32.46875-35.511718 22.644532-28.628906 34.121094-53.734375 34.121094-74.617188zm-76.773438 78.050782c-21.1875-22.105469-46.777343-56.015626-46.777343-78.050782v-1.890625c0-25.773437 20.984375-46.742187 46.777343-46.742187 25.792969 0 46.773438 20.96875 46.773438 46.742187v1.890625c0 22.035156-25.589844 55.949219-46.773438 78.050782zm0 0"/><path d="m373.960938 267.3125c0 7.582031-6.144532 13.726562-13.726563 13.726562s-13.726563-6.144531-13.726563-13.726562 6.144532-13.730469 13.726563-13.730469 13.726563 6.148438 13.726563 13.730469zm0 0"/><path d="m360.234375 189.519531c-42.335937 0-76.777344 34.425781-76.777344 76.742188v1.890625c0 20.882812 11.480469 45.988281 34.125 74.617187 15.984375 20.210938 31.804688 34.894531 32.472657 35.511719l10.179687 9.414062 10.183594-9.414062c.664062-.613281 16.484375-15.300781 32.472656-35.511719 22.640625-28.628906 34.121094-53.734375 34.121094-74.617187v-1.890625c0-42.316407-34.441407-76.742188-76.777344-76.742188zm46.777344 78.632813c0 22.035156-25.59375 55.945312-46.777344 78.050781-21.183594-22.105469-46.777344-56.015625-46.777344-78.050781v-1.890625c0-25.773438 20.984375-46.742188 46.777344-46.742188s46.777344 20.96875 46.777344 46.742188zm0 0"/><path d="m174.21875 312.289062c0 7.582032-6.148438 13.726563-13.730469 13.726563s-13.726562-6.144531-13.726562-13.726563c0-7.582031 6.144531-13.730468 13.726562-13.730468s13.730469 6.148437 13.730469 13.730468zm0 0"/><path d="m214.027344 334.253906c0 7.582032-6.144532 13.726563-13.726563 13.726563s-13.726562-6.144531-13.726562-13.726563c0-7.582031 6.144531-13.730468 13.726562-13.730468s13.726563 6.148437 13.726563 13.730468zm0 0"/><path d="m254.527344 356.21875c0 7.582031-6.148438 13.726562-13.726563 13.726562-7.582031 0-13.730469-6.144531-13.730469-13.726562s6.148438-13.730469 13.730469-13.730469c7.578125 0 13.726563 6.148438 13.726563 13.730469zm0 0"/><path d="m293.652344 378.183594c0 7.582031-6.148438 13.726562-13.726563 13.726562-7.582031 0-13.730469-6.144531-13.730469-13.726562 0-7.582032 6.148438-13.730469 13.730469-13.730469 7.578125 0 13.726563 6.148437 13.726563 13.730469zm0 0"/><path d="m334.148438 400.148438c0 7.582031-6.144532 13.726562-13.726563 13.726562s-13.726563-6.144531-13.726563-13.726562c0-7.582032 6.144532-13.726563 13.726563-13.726563s13.726563 6.144531 13.726563 13.726563zm0 0"/><path d="m373.617188 422.113281c0 7.582031-6.144532 13.726563-13.726563 13.726563s-13.726563-6.144532-13.726563-13.726563 6.144532-13.726562 13.726563-13.726562 13.726563 6.144531 13.726563 13.726562zm0 0"/></g></svg>